Coordinates
version=1
nRows=8
nColumns=63
inDegrees=yes

Units are S.I. units (second, meters, Newtons, ...)
If the header above contains a line with 'inDegrees', this indicates whether rotational values are in degrees (yes) or radians (no).

endheader
time	pelvis_tilt	pelvis_list	pelvis_rotation	pelvis_tx	pelvis_ty	pelvis_tz	hip_flexion_r	hip_adduction_r	hip_rotation_r	knee_angle_r	knee_angle_r_beta	ankle_angle_r	subtalar_angle_r	mtp_angle_r	hip_flexion_l	hip_adduction_l	hip_rotation_l	knee_angle_l	knee_angle_l_beta	ankle_angle_l	subtalar_angle_l	mtp_angle_l	L5_S1_Flex_Ext	L5_S1_Lat_Bending	L5_S1_axial_rotation	L4_L5_Flex_Ext	L4_L5_Lat_Bending	L4_L5_axial_rotation	L3_L4_Flex_Ext	L3_L4_Lat_Bending	L3_L4_axial_rotation	L2_L3_Flex_Ext	L2_L3_Lat_Bending	L2_L3_axial_rotation	L1_L2_Flex_Ext	L1_L2_Lat_Bending	L1_L2_axial_rotation	L1_T12_Flex_Ext	L1_T12_Lat_Bending	L1_T12_axial_rotation	Abs_r3	Abs_r2	Abs_r1	Abs_t1	Abs_t2	neck_flexion	neck_bending	neck_rotation	arm_flex_r	arm_add_r	arm_rot_r	elbow_flex_r	pro_sup_r	wrist_flex_r	wrist_dev_r	arm_flex_l	arm_add_l	arm_rot_l	elbow_flex_l	pro_sup_l	wrist_flex_l	wrist_dev_l
1.466667	-1.910194	-2.873147	76.394657	0.195051	0.955407	0.466251	4.445365	1.053621	0.913708	12.961511	0.226221	23.860272	-14.437646	0.000000	0.218408	-2.151142	-3.087239	3.742054	0.065311	30.183833	11.333575	0.000000	0.082750	0.565400	-0.373536	0.153675	0.751982	-0.396882	0.135950	1.374714	-0.396882	0.094575	1.374714	-0.326844	0.076841	1.152964	-0.303498	0.047283	0.875805	-0.280152	0.591074	6.395918	-2.077496	0.000000	0.000000	24.283323	-1.546900	-1.892028	12.208539	-8.751046	46.838295	39.874427	32.904333	-3.698006	12.451670	19.284068	-2.522745	61.160112	33.475745	82.782132	-4.388758	-2.386470
1.483333	-1.917494	-2.989330	76.811497	0.194203	0.955138	0.466419	4.503342	1.023795	0.431475	12.956052	0.226126	23.795773	-14.296606	0.000000	0.476867	-2.160802	-2.890712	3.807586	0.066455	30.280168	11.635533	0.000000	0.086492	0.560607	-0.440981	0.160624	0.745607	-0.468542	0.142098	1.363059	-0.468542	0.098852	1.363059	-0.385858	0.080316	1.143189	-0.358297	0.049421	0.868380	-0.330735	0.617803	6.341694	-2.452602	0.000000	0.000000	24.500303	-1.516649	-2.126679	12.318647	-8.789016	46.992171	39.847058	32.809430	-3.507409	12.337751	19.207684	-2.509440	60.598292	33.600762	82.087154	-4.304343	-2.052576
1.500000	-1.910886	-3.135369	77.196382	0.193384	0.954859	0.466487	4.588319	1.016404	0.012416	12.906015	0.225252	23.794594	-14.067760	0.000000	0.742164	-2.189092	-2.668439	3.842732	0.067068	30.394179	11.886458	0.000000	0.091077	0.558030	-0.507505	0.169139	0.742180	-0.539224	0.149630	1.356795	-0.539224	0.104092	1.356795	-0.444067	0.084574	1.137935	-0.412348	0.052041	0.864389	-0.380629	0.650552	6.312551	-2.822592	0.000000	0.000000	24.770590	-1.494508	-2.338596	12.413258	-8.832753	47.131217	39.854148	32.712879	-3.379800	12.243088	19.058929	-2.480753	59.882547	33.767045	81.536578	-4.233561	-1.713629
1.516667	-1.880537	-3.314178	77.550067	0.192584	0.954582	0.466457	4.708643	1.027648	-0.476649	12.822823	0.223800	23.896955	-13.573399	0.000000	1.009502	-2.242411	-2.342246	3.842334	0.067061	30.488885	11.975325	0.000000	0.097183	0.559781	-0.573725	0.180479	0.744509	-0.609583	0.159663	1.361052	-0.609583	0.111071	1.361052	-0.502010	0.090244	1.141506	-0.466152	0.055531	0.867101	-0.430294	0.694171	6.332357	-3.190889	0.000000	0.000000	25.090814	-1.476250	-2.473873	12.481370	-8.876335	47.185232	39.893132	32.699274	-3.306180	12.255062	18.865485	-2.430829	59.118403	33.935855	81.125247	-4.173929	-1.434034
1.533333	-1.826161	-3.519572	77.832722	0.191877	0.954315	0.466343	4.858461	1.071318	-0.910536	12.697593	0.221615	24.060656	-12.986215	0.000000	1.267013	-2.324032	-2.031259	3.816289	0.066607	30.556542	11.990520	0.000000	0.104529	0.566160	-0.635469	0.194121	0.752993	-0.675186	0.171731	1.376562	-0.675186	0.119466	1.376562	-0.556036	0.097066	1.154514	-0.516319	0.059728	0.876982	-0.476602	0.746641	6.404517	-3.534289	0.000000	0.000000	25.446247	-1.448417	-2.486942	12.544819	-8.920487	47.244315	39.950145	32.692034	-3.289424	12.358390	18.617120	-2.374814	58.307135	34.119468	80.902141	-4.153290	-1.233625
1.550000	-1.745776	-3.743845	78.028741	0.191298	0.954067	0.466170	5.036172	1.149593	-1.276833	12.541375	0.218888	24.285054	-12.337638	0.000000	1.504839	-2.435838	-1.766258	3.768892	0.065780	30.581811	11.942473	0.000000	0.112875	0.577527	-0.687728	0.209620	0.768111	-0.730711	0.185442	1.404199	-0.730711	0.129005	1.404199	-0.601762	0.104816	1.177693	-0.558779	0.064497	0.894590	-0.515796	0.806254	6.533102	-3.824937	0.000000	0.000000	25.819804	-1.408013	-2.363788	12.597622	-8.967596	47.304981	40.022529	32.672761	-3.318765	12.547941	18.360615	-2.313731	57.617885	34.277447	80.862415	-4.226945	-1.176363
1.566667	-1.640227	-3.973833	78.134122	0.190877	0.953843	0.465952	5.227112	1.265448	-1.517469	12.354864	0.215633	24.557670	-11.726848	0.000000	1.709498	-2.576259	-1.524935	3.703558	0.064639	30.548716	11.796148	0.000000	0.121679	0.593243	-0.728932	0.225971	0.789013	-0.774491	0.199907	1.442411	-0.774491	0.139067	1.442411	-0.637816	0.112992	1.209741	-0.592258	0.069528	0.918933	-0.546699	0.869144	6.710882	-4.054103	0.000000	0.000000	26.188608	-1.346675	-2.104736	12.642365	-9.013255	47.385645	40.098883	32.646273	-3.399571	12.782366	18.110481	-2.254375	57.096042	34.397903	81.030045	-4.431043	-1.279756
1.583333	-1.511141	-4.194410	78.153614	0.190614	0.953651	0.465703	5.417499	1.410746	-1.677716	12.148442	0.212030	24.892710	-11.130037	0.000000	1.865968	-2.738725	-1.307446	3.616217	0.063115	30.454333	11.545333	0.000000	0.130216	0.612394	-0.759248	0.241824	0.814484	-0.806701	0.213932	1.488976	-0.806701	0.148824	1.488976	-0.664342	0.120919	1.248794	-0.616889	0.074406	0.948599	-0.569436	0.930121	6.927527	-4.222707	0.000000	0.000000	26.532255	-1.264560	-1.741187	12.686383	-9.057595	47.508101	40.156797	32.588946	-3.499440	13.000035	17.870103	-2.195005	56.718267	34.461801	81.394388	-4.741656	-1.525930
